<svg width="34" height="34" viewBox="0 0 34 34" fill="none" xmlns="http://www.w3.org/2000/svg">
<path fill-rule="evenodd" clip-rule="evenodd" d="M17 0C21.5409 0 25.8099 1.76833 29.0208 4.97914C32.2317 8.19008 34 12.4591 34 17C34 21.5409 32.2317 25.8099 29.0208 29.0208C25.8099 32.2317 21.5409 34 17 34C12.4591 34 8.19002 32.2317 4.97914 29.0208C1.76827 25.8099 0 21.5409 0 17C0 12.4591 1.76827 8.19002 4.97914 4.97914C8.18995 1.76833 12.4591 0 17 0ZM1.99219 17C1.99219 25.2753 8.72465 32.0078 17 32.0078C25.2753 32.0078 32.0078 25.2753 32.0078 17C32.0078 8.72466 25.2753 1.99219 17 1.99219C8.72465 1.99219 1.99219 8.72466 1.99219 17Z" fill="#203E75"/>
<path d="M25.1216 11.5457C24.7327 11.1568 24.102 11.1568 23.713 11.5457L14.9169 20.3418L10.2866 15.7115C9.89767 15.3226 9.26695 15.3226 8.87794 15.7115C8.48893 16.1005 8.48893 16.7312 8.87794 17.1202L14.2126 22.4548C14.4071 22.6493 14.662 22.7465 14.9169 22.7465C15.1717 22.7465 15.4267 22.6493 15.6212 22.4548L25.1216 12.9544C25.5106 12.5654 25.5106 11.9347 25.1216 11.5457Z" fill="#203E75"/>
</svg>
